<svg width="256" height="256" viewBox="0 0 256 256" fill="none" xmlns="http://www.w3.org/2000/svg">
<path d="M160.572 0H95.4281C42.7246 0 0 42.7246 0 95.4281V160.572C0 213.275 42.7246 256 95.4281 256H160.572C213.275 256 256 213.275 256 160.572V95.4281C256 42.7246 213.275 0 160.572 0Z" fill="#03C8FF"/>
<path d="M116.344 202.186C116.344 202.186 116.344 228.984 105.45 233.559C94.5567 238.134 81.1576 206.979 84.0989 176.803C112.204 172.337 116.344 202.186 116.344 202.186Z" fill="white"/>
<path d="M144.014 202.186C144.014 202.186 144.014 228.984 154.907 233.559C165.801 238.135 179.091 207.414 176.15 176.803C148.153 172.337 144.014 202.186 144.014 202.186Z" fill="white"/>
<path d="M136.933 108.936C134.869 108.706 132.787 108.706 130.723 108.936C128.516 108.372 126.248 108.079 123.969 108.065C92.4867 108.065 84.6433 149.025 84.6433 179.2C83.5909 187.713 85.5986 196.323 90.308 203.493C96.2994 210.138 107.302 210.465 126.039 210.465H135.408C154.036 210.465 165.147 210.465 171.139 203.493C175.848 196.323 177.856 187.713 176.803 179.2C176.259 149.352 168.306 108.936 136.933 108.936Z" fill="white"/>
<path d="M182.686 120.701C169.722 123.207 155.561 131.595 161.879 142.488C166.127 158.611 182.577 149.678 192.599 139.003L182.686 120.701Z" fill="white"/>
<path d="M87.1488 181.052C84.0919 185.084 79.5875 187.77 74.587 188.542C69.5865 189.315 64.4815 188.113 60.3505 185.192C59.3701 184.429 57.6271 185.954 58.3896 186.934C60.7084 190.349 63.6914 193.26 67.1604 195.496C70.6294 197.732 74.5134 199.246 78.5804 199.947C82.6475 200.649 86.8142 200.524 90.8318 199.58C94.8494 198.635 98.6355 196.891 101.964 194.451L87.1488 181.052Z" fill="white"/>
<path d="M156.432 75.7106C158.117 75.7106 159.482 74.345 159.482 72.6604C159.482 70.9758 158.117 69.6102 156.432 69.6102C154.748 69.6102 153.382 70.9758 153.382 72.6604C153.382 74.345 154.748 75.7106 156.432 75.7106Z" fill="white"/>
<path d="M175.278 103.707C175.506 110.228 174.408 116.727 172.052 122.812C169.697 128.897 166.132 134.441 161.572 139.109C157.013 143.777 151.555 147.471 145.527 149.97C139.5 152.468 133.028 153.718 126.504 153.645C119.979 153.571 113.537 152.175 107.568 149.541C101.598 146.907 96.2245 143.09 91.772 138.32C87.3195 133.55 83.8805 127.927 81.6629 121.791C79.4452 115.654 78.495 109.132 78.8697 102.618C78.8697 76.0375 100.657 36.2757 127.891 36.6026C155.125 36.9294 175.605 77.1268 175.278 103.707Z" fill="white"/>
<path d="M110.679 92.16C109.154 90.6349 107.847 89.2187 106.104 89.2187C104.126 88.9847 102.122 89.1703 100.221 89.7634C100.12 89.7995 100.011 89.81 99.904 89.7937C99.7973 89.7775 99.6964 89.7352 99.6101 89.6705C99.5238 89.6057 99.4549 89.5207 99.4094 89.4228C99.364 89.325 99.3435 89.2175 99.3497 89.1098C99.2828 88.9939 99.2476 88.8624 99.2476 88.7285C99.2476 88.5947 99.2828 88.4632 99.3497 88.3472C101.345 86.7512 103.89 86.0074 106.431 86.2775C107.697 86.624 108.849 87.3008 109.767 88.2388C110.686 89.1767 111.339 90.342 111.66 91.6153C111.717 91.7341 111.747 91.8645 111.747 91.9966C111.747 92.1287 111.717 92.2591 111.66 92.3779C111.497 92.4665 111.309 92.4932 111.128 92.4531C110.948 92.4131 110.788 92.3089 110.679 92.16Z" fill="black"/>
<path fill-rule="evenodd" clip-rule="evenodd" d="M109.728 125.254C109.921 125.21 110.113 125.331 110.157 125.524C110.556 127.28 111.327 128.93 112.417 130.363C113.507 131.797 114.892 132.98 116.477 133.833C118.063 134.686 119.813 135.189 121.61 135.309C123.407 135.429 125.208 135.162 126.893 134.528C127.079 134.458 127.285 134.551 127.355 134.737C127.425 134.922 127.331 135.129 127.146 135.198C125.365 135.869 123.461 136.151 121.562 136.024C119.663 135.898 117.814 135.365 116.138 134.464C114.462 133.562 112.998 132.312 111.846 130.797C110.694 129.283 109.88 127.539 109.458 125.683C109.414 125.49 109.535 125.298 109.728 125.254Z" fill="#221F1F"/>
<path d="M108.936 42.9208C103.661 36.9776 96.4368 33.1143 88.5651 32.0272C81.1999 31.8401 74.0457 34.4975 68.5886 39.4474C63.1315 44.3973 59.7911 51.2592 59.2612 58.6077C60.1327 72.7694 68.3029 79.7413 73.8587 73.423C79.4144 67.1047 87.8025 48.6945 100.766 57.4094L108.936 42.9208Z" fill="white"/>
<path d="M145.974 43.5745C151.785 37.5695 159.471 33.7266 167.762 32.6808C175.237 32.7374 182.392 35.7248 187.688 41.0007C192.985 46.2767 196 53.4201 196.085 60.8953C194.451 74.9481 185.954 81.3753 180.725 74.8391C175.496 68.303 168.088 49.457 154.689 57.4094L145.974 43.5745Z" fill="white"/>
<path d="M159.374 62.6383C157.782 60.1323 155.366 58.2604 152.542 57.3456C149.718 56.4307 146.663 56.5303 143.905 57.6272C139.181 59.6073 135.134 62.9152 132.253 67.1497C129.372 71.3843 127.781 76.3637 127.673 81.4842C127.475 84.9569 128.002 88.4328 129.22 91.6908C130.439 94.9487 132.322 97.9172 134.751 100.407C137.18 102.897 140.1 104.855 143.326 106.154C146.553 107.454 150.015 108.067 153.491 107.956C156.861 108.051 160.219 107.534 163.404 106.431C166.131 105.408 168.417 103.468 169.868 100.943C171.32 98.4183 171.846 95.4666 171.357 92.5957C169.307 81.9378 165.24 71.7696 159.374 62.6383Z" fill="#E0E0E0"/>
<path d="M133.447 81.92L135.19 92.16L141.072 100.439L147.173 103.054H157.195L166.781 97.6068L168.198 85.406L165.365 76.2553H148.48L135.843 78.6519L133.447 81.92Z" fill="white"/>
<path d="M155.887 80.7216C155.134 80.7494 154.393 80.9273 153.709 81.2451C153.025 81.5628 152.411 82.0139 151.904 82.572C151.397 83.1301 151.006 83.7839 150.755 84.495C150.503 85.2061 150.397 85.9602 150.441 86.7131C150.381 87.4605 150.474 88.2122 150.713 88.9228C150.952 89.6335 151.332 90.2884 151.831 90.8482C152.329 91.408 152.936 91.8611 153.615 92.1801C154.293 92.4992 155.029 92.6776 155.778 92.7046C157.368 92.7046 158.891 92.0734 160.015 90.9498C161.139 89.8261 161.77 88.3022 161.77 86.7131C161.77 85.1241 161.139 83.6001 160.015 82.4765C158.891 81.3529 157.368 80.7216 155.778 80.7216H155.887Z" fill="black"/>
<path d="M159.482 85.297C161.167 85.297 162.532 83.9314 162.532 82.2468C162.532 80.5622 161.167 79.1966 159.482 79.1966C157.798 79.1966 156.432 80.5622 156.432 82.2468C156.432 83.9314 157.798 85.297 159.482 85.297Z" fill="white"/>
<path d="M114.383 118.414C115.927 120.228 117.847 121.686 120.01 122.686C122.173 123.685 124.528 124.203 126.911 124.203C129.293 124.203 131.648 123.685 133.811 122.686C135.974 121.686 137.894 120.228 139.438 118.414C141.293 116.62 142.451 114.227 142.706 111.66C142.706 104.906 133.882 102.727 127.128 102.618C120.374 102.509 111.333 104.47 111.224 111.333C111.373 114.001 112.497 116.521 114.383 118.414Z" fill="#221F1F"/>
<path d="M113.402 98.0425C116.721 94.2255 118.608 89.3728 118.74 84.3166C118.567 83.0634 118.089 81.8717 117.349 80.8462C116.608 79.8206 115.627 78.9923 114.492 78.434C110.334 76.9429 105.945 76.2051 101.528 76.2553C98.3731 76.0767 95.2097 76.4077 92.1598 77.2357C90.795 77.7118 89.5963 78.5713 88.7076 79.7113C87.8188 80.8512 87.2776 82.2232 87.1487 83.663C86.723 88.4668 87.953 93.2717 90.6347 97.28C91.8547 98.7228 93.3803 99.8763 95.1011 100.657C96.4886 101.263 97.9561 101.667 99.4585 101.855H102.727C106.583 101.663 110.297 100.337 113.402 98.0425ZM162.533 78.3251C159.516 77.5002 156.4 77.097 153.273 77.1268C148.857 76.9794 144.445 77.5309 140.201 78.7608C139.053 79.2873 138.054 80.0904 137.294 81.0981C136.533 82.1058 136.035 83.2866 135.843 84.5345C135.861 89.4885 137.637 94.2754 140.854 98.0425C143.976 100.522 147.772 102.002 151.748 102.291H155.125C156.58 102.104 158.007 101.738 159.373 101.202C160.931 100.454 162.306 99.3762 163.404 98.0425C166.227 94.1714 167.579 89.421 167.217 84.6434C167.091 83.2483 166.589 81.9136 165.764 80.7816C164.939 79.6496 163.822 78.7629 162.533 78.2162V78.3251ZM154.036 73.2051C161.16 73.3314 168.263 74.0235 175.278 75.2749H175.932L174.951 82.1379C174.951 82.1379 173.317 82.1379 172.664 84.8613C172.01 87.5847 172.664 87.1489 172.01 88.4562C171.741 90.2894 171.378 92.1075 170.921 93.903C170.329 96.2224 169.293 98.4051 167.87 100.33C166.388 101.988 164.576 103.319 162.55 104.238C160.524 105.157 158.33 105.644 156.105 105.668H155.016C148.691 105.844 142.511 103.758 137.586 99.7855C135.812 97.7993 134.343 95.5597 133.229 93.1404L131.921 89.2187C131.496 87.433 130.759 85.7366 129.743 84.2076C129.078 83.9465 128.338 83.9465 127.673 84.2076H126.148C125.072 85.5403 124.326 87.1078 123.969 88.783C123.653 89.709 123.29 90.618 122.88 91.5064C121.769 94.398 120.186 97.0853 118.196 99.4587C115.896 101.559 113.195 103.172 110.256 104.202C107.317 105.232 104.2 105.656 101.093 105.45H99.0228C96.5935 105.409 94.2049 104.819 92.0356 103.725C89.8662 102.631 87.9722 101.061 86.4951 99.1319C84.3435 95.8951 83.1364 92.1229 83.0091 88.2383C83.0091 86.8221 83.0091 85.4059 83.0091 84.4255C82.8937 83.7391 82.5873 83.0991 82.1249 82.5789C81.6624 82.0587 81.0628 81.6793 80.3947 81.4842L79.7411 74.9481H79.5232C85.9115 73.715 92.4081 73.131 98.9138 73.2051H105.886C110.867 73.6937 115.769 74.7912 120.483 76.4732C122.531 77.3206 124.7 77.8354 126.91 77.9983C129.555 77.7638 132.156 77.1776 134.645 76.2553C139.183 74.8754 143.859 73.9986 148.589 73.6408L154.036 73.2051Z" fill="black"/>
<path d="M112.64 40.7421C112.64 40.7421 127.782 32.6808 125.494 21.7872C127.825 23.7169 129.62 26.2133 130.707 29.0367C131.794 31.86 132.138 34.9155 131.704 37.9097C129.634 46.8425 112.64 40.7421 112.64 40.7421Z" fill="white"/>
<path d="M131.813 36.9293C134.262 36.0617 136.403 34.4952 137.971 32.4235C139.539 30.3518 140.466 27.8659 140.636 25.2731C140.636 25.2731 146.083 36.1667 140.636 42.3761C135.19 48.5855 131.813 36.9293 131.813 36.9293Z" fill="white"/>
<path d="M92.4869 156.323C88.7831 158.938 74.2946 170.594 65.5797 165.692C56.8648 160.79 76.4733 128.109 91.0707 131.268C104.579 133.556 102.4 148.916 92.4869 156.323Z" fill="white"/>
<path opacity="0.37" d="M162.424 116.671C177.164 116.671 189.113 104.721 189.113 89.9812C189.113 75.2411 177.164 63.2919 162.424 63.2919C147.684 63.2919 135.734 75.2411 135.734 89.9812C135.734 104.721 147.684 116.671 162.424 116.671Z" fill="#26DCF7"/>
<path d="M178.928 84.0348C180.72 82.616 179.934 78.6358 177.171 75.1447C174.408 71.6537 170.715 69.9739 168.922 71.3927C167.129 72.8115 167.916 76.7918 170.679 80.2828C173.442 83.7738 177.135 85.4537 178.928 84.0348Z" fill="white"/>
<path d="M179.527 92.9226C181.151 92.9226 182.468 91.6057 182.468 89.9813C182.468 88.3569 181.151 87.04 179.527 87.04C177.902 87.04 176.586 88.3569 176.586 89.9813C176.586 91.6057 177.902 92.9226 179.527 92.9226Z" fill="white"/>
<path d="M162.097 58.9344C156 58.9344 150.039 60.7425 144.969 64.1301C139.9 67.5176 135.948 72.3324 133.615 77.9657C131.281 83.5989 130.671 89.7976 131.86 95.7778C133.05 101.758 135.986 107.251 140.298 111.563C144.609 115.874 150.102 118.81 156.083 120C162.063 121.19 168.262 120.579 173.895 118.246C179.528 115.912 184.343 111.961 187.73 106.891C191.118 101.821 192.926 95.8608 192.926 89.7634C192.926 81.587 189.678 73.7456 183.896 67.964C178.115 62.1825 170.273 58.9344 162.097 58.9344ZM162.097 113.403C157.43 113.489 152.843 112.185 148.919 109.658C144.995 107.13 141.912 103.493 140.061 99.2078C138.21 94.923 137.675 90.1844 138.524 85.5947C139.374 81.0051 141.569 76.7717 144.83 73.433C148.092 70.0943 152.273 67.8011 156.842 66.845C161.41 65.889 166.16 66.3133 170.487 68.0639C174.814 69.8146 178.522 72.8125 181.141 76.6765C183.759 80.5405 185.169 85.0959 185.192 89.7634C185.164 95.9103 182.732 101.803 178.416 106.18C174.1 110.557 168.243 113.071 162.097 113.185V113.403Z" fill="#6426FA"/>
<path d="M181.27 114.165L198.373 141.617C198.712 142.152 198.943 142.75 199.05 143.375C199.157 144 199.14 144.64 198.998 145.258C198.856 145.876 198.593 146.46 198.224 146.976C197.855 147.491 197.387 147.929 196.848 148.262C195.759 148.92 194.456 149.129 193.216 148.844C191.976 148.559 190.896 147.804 190.202 146.737L174.298 117.978C173.839 117.082 173.753 116.04 174.059 115.081C174.365 114.122 175.039 113.323 175.932 112.858C176.36 112.567 176.845 112.37 177.355 112.278C177.865 112.187 178.388 112.203 178.891 112.326C179.394 112.449 179.866 112.677 180.275 112.993C180.685 113.31 181.024 113.709 181.27 114.165Z" fill="#6426FA"/>
<path d="M183.23 131.377C181.596 128 180.725 121.9 184.647 119.285C191.945 117.215 199.898 128.98 194.124 135.952C190.529 139.765 185.191 134.754 183.23 131.377Z" fill="white"/>
</svg>
